<?xml version="1.0" encoding="iso-8859-1"?>
<!-- Generator: Adobe Illustrator 18.1.1, SVG Export Plug-In . SVG Version: 6.00 Build 0)  -->
<svg version="1.1" id="Capa_1" xmlns="http://www.w3.org/2000/svg" xmlns:xlink="http://www.w3.org/1999/xlink" x="0px" y="0px"
	 viewBox="0 0 155.139 155.139" style="enable-background:new 0 0 155.139 155.139;" xml:space="preserve">
<g>
	<path style="fill:#010002;" d="M111.759,29.864c-2.715,0-4.612,0.955-5.686,2.858c-1.104,1.909-1.641,4.612-1.641,8.115
		c0,3.509,0.549,6.206,1.641,8.097c1.074,1.897,2.971,2.846,5.686,2.846c2.697,0,4.6-0.949,5.68-2.846
		c1.092-1.891,1.629-4.594,1.629-8.097s-0.549-6.212-1.629-8.115C116.366,30.819,114.468,29.864,111.759,29.864z M114.2,46.44
		c-0.376,1.289-1.193,1.939-2.429,1.939c-1.247,0-2.071-0.644-2.47-1.939c-0.394-1.295-0.603-3.162-0.603-5.603
		c0-2.56,0.197-4.457,0.603-5.686s1.223-1.85,2.47-1.85c1.235,0,2.053,0.621,2.429,1.85c0.382,1.229,0.591,3.121,0.591,5.686
		C114.779,43.278,114.582,45.145,114.2,46.44z M24.858,155.139h105.423c6.564,0,11.934-5.37,11.934-11.934V11.934
		C142.214,5.37,136.844,0,130.281,0H24.858c-6.564,0-11.934,5.37-11.934,11.934v131.271
		C12.924,149.768,18.294,155.139,24.858,155.139z M55.731,130.406c0,1.724-1.39,3.127-3.115,3.127H30.371
		c-1.712,0-3.115-1.402-3.115-3.127v-7.339c0-1.718,1.402-3.121,3.115-3.121h22.244c1.724,0,3.115,1.402,3.115,3.121V130.406z
		 M55.731,107.356c0,1.718-1.39,3.121-3.115,3.121H30.371c-1.712,0-3.115-1.402-3.115-3.121v-7.345c0-1.718,1.402-3.115,3.115-3.115
		h22.244c1.724,0,3.115,1.408,3.115,3.115V107.356z M55.731,84.294c0,1.718-1.39,3.121-3.115,3.121H30.371
		c-1.712,0-3.115-1.402-3.115-3.121v-7.339c0-1.718,1.402-3.127,3.115-3.127h22.244c1.724,0,3.115,1.408,3.115,3.127V84.294z
		 M92.021,130.406c0,1.724-1.396,3.127-3.127,3.127H66.662c-1.712,0-3.115-1.402-3.115-3.127v-7.339
		c0-1.718,1.402-3.121,3.115-3.121h22.233c1.73,0,3.127,1.402,3.127,3.121V130.406z M92.021,107.356
		c0,1.718-1.396,3.121-3.127,3.121H66.662c-1.712,0-3.115-1.402-3.115-3.121v-7.345c0-1.718,1.402-3.115,3.115-3.115h22.233
		c1.73,0,3.127,1.408,3.127,3.115V107.356z M92.021,84.294c0,1.718-1.396,3.121-3.127,3.121H66.662
		c-1.712,0-3.115-1.402-3.115-3.121v-7.339c0-1.718,1.402-3.127,3.115-3.127h22.233c1.73,0,3.127,1.408,3.127,3.127V84.294z
		 M128.312,130.406c0,1.724-1.396,3.127-3.115,3.127h-22.233c-1.724,0-3.127-1.402-3.127-3.127v-7.339
		c0-1.718,1.402-3.121,3.127-3.121h22.233c1.718,0,3.115,1.402,3.115,3.121V130.406z M128.312,107.356
		c0,1.718-1.396,3.121-3.115,3.121h-22.233c-1.724,0-3.127-1.402-3.127-3.121v-7.345c0-1.718,1.402-3.115,3.127-3.115h22.233
		c1.718,0,3.115,1.408,3.115,3.115V107.356z M128.312,84.294c0,1.718-1.396,3.121-3.115,3.121h-22.233
		c-1.724,0-3.127-1.402-3.127-3.121v-7.339c0-1.718,1.402-3.127,3.127-3.127h22.233c1.718,0,3.115,1.408,3.115,3.127V84.294z
		 M26.827,21.6h101.18v36.738H26.827V21.6z"/>
</g>
<g>
</g>
<g>
</g>
<g>
</g>
<g>
</g>
<g>
</g>
<g>
</g>
<g>
</g>
<g>
</g>
<g>
</g>
<g>
</g>
<g>
</g>
<g>
</g>
<g>
</g>
<g>
</g>
<g>
</g>
</svg>
