
<svg width="790" height="731" viewBox="0 0 790 731" fill="none" xmlns="http://www.w3.org/2000/svg">
<g clip-path="url(#clip0)">
<g opacity="0.5">
<path opacity="0.5" d="M551.67 43.9898L219.17 44.7998C217.375 44.8037 215.599 45.1613 213.943 45.852C212.286 46.5428 210.782 47.5532 209.516 48.8255C208.25 50.0977 207.248 51.607 206.566 53.267C205.883 54.927 205.535 56.7051 205.54 58.4998L207.05 680.39C207.054 682.185 207.412 683.961 208.102 685.617C208.793 687.274 209.803 688.778 211.076 690.044C212.348 691.309 213.857 692.312 215.517 692.994C217.177 693.677 218.955 694.025 220.75 694.02L553.25 693.21C555.046 693.206 556.823 692.848 558.48 692.157C560.137 691.465 561.642 690.454 562.908 689.181C564.173 687.907 565.176 686.397 565.858 684.736C566.539 683.075 566.887 681.295 566.88 679.5L565.37 57.6098C565.365 55.8159 565.006 54.0407 564.315 52.3854C563.624 50.7301 562.613 49.2272 561.341 47.9624C560.069 46.6977 558.56 45.6959 556.901 45.0143C555.241 44.3327 553.464 43.9845 551.67 43.9898V43.9898Z" fill="url(#paint0_linear)"/>
</g>
<path d="M546.854 52.4806L224.024 53.2694C216.491 53.2878 210.399 59.4096 210.418 66.9427L211.895 671.611C211.914 679.144 218.035 685.236 225.569 685.218L548.398 684.429C555.931 684.41 562.023 678.289 562.004 670.755L560.527 66.0872C560.508 58.5541 554.387 52.4622 546.854 52.4806Z" fill="white"/>
<path opacity="0.4" d="M473.43 68.5001C472.434 75.2031 469.073 81.3286 463.954 85.7689C458.835 90.2093 452.296 92.6714 445.52 92.7101L324.59 93.0001C317.819 92.988 311.275 90.5553 306.14 86.1413C301.006 81.7272 297.618 75.6228 296.59 68.9301L232.54 69.0901C230.793 69.0941 229.065 69.442 227.453 70.114C225.841 70.786 224.377 71.769 223.144 73.0068C221.912 74.2446 220.936 75.713 220.271 77.3281C219.606 78.9433 219.266 80.6735 219.27 82.4201L220.66 656.09C220.664 657.838 221.012 659.567 221.685 661.18C222.358 662.793 223.341 664.257 224.58 665.489C225.819 666.722 227.289 667.698 228.905 668.362C230.521 669.026 232.253 669.365 234 669.36L540 668.62C541.747 668.616 543.475 668.268 545.087 667.596C546.7 666.924 548.164 665.941 549.396 664.703C550.628 663.466 551.604 661.997 552.269 660.382C552.934 658.767 553.274 657.037 553.27 655.29L551.88 81.6201C551.876 79.8735 551.528 78.1448 550.856 76.5327C550.184 74.9206 549.201 73.4566 547.963 72.2244C546.726 70.9921 545.257 70.0158 543.642 69.351C542.027 68.6863 540.297 68.3462 538.55 68.3501L473.43 68.5001Z" fill="#575ADD"/>
<path d="M419.303 75.7706L345.292 76.8816C344.187 76.8982 343.305 77.807 343.322 78.9114L343.335 79.7913C343.352 80.8957 344.261 81.7776 345.365 81.7611L419.377 80.6501C420.481 80.6335 421.363 79.7247 421.346 78.6203L421.333 77.7404C421.317 76.6359 420.408 75.754 419.303 75.7706Z" fill="#DBDBDB"/>
<path d="M437.942 80.3618C439.56 80.3375 440.852 79.0061 440.828 77.3881C440.803 75.7701 439.472 74.4781 437.854 74.5024C436.236 74.5267 434.944 75.858 434.968 77.476C434.993 79.0941 436.324 80.386 437.942 80.3618Z" fill="#DBDBDB"/>
<g opacity="0.5">
<path opacity="0.5" d="M427.07 504.63C427.076 487.563 422.663 470.785 414.261 455.929C405.858 441.073 393.752 428.646 379.122 419.858C364.491 411.069 347.834 406.218 330.773 405.778C313.711 405.337 296.826 409.321 281.761 417.343C266.696 425.364 253.965 437.15 244.807 451.552C235.649 465.954 230.375 482.482 229.5 499.526C228.625 516.571 232.178 533.552 239.813 548.816C247.449 564.081 258.906 577.108 273.07 586.63L273.13 587.07C276.359 590.164 280.169 592.587 284.34 594.2L284.47 593.76C289.1 597.76 308.59 604.09 330.98 604.03H331.47C345.65 604.03 361.05 601.53 374.59 594.2C374.59 594.2 374.71 593.94 374.89 593.45C378.32 591.839 381.467 589.684 384.21 587.07C384.263 586.69 384.317 586.317 384.37 585.95C397.544 576.869 408.313 564.723 415.751 550.557C423.19 536.391 427.074 520.63 427.07 504.63V504.63Z" fill="url(#paint1_linear)"/>
</g>
<path d="M328.21 600.53C381.169 600.53 424.1 557.599 424.1 504.64C424.1 451.681 381.169 408.75 328.21 408.75C275.251 408.75 232.32 451.681 232.32 504.64C232.32 557.599 275.251 600.53 328.21 600.53Z" fill="#F5F5F5"/>
<g opacity="0.5">
<path opacity="0.5" d="M346.94 243.85C346.934 226.783 351.347 210.005 359.749 195.149C368.152 180.294 380.258 167.867 394.888 159.078C409.519 150.289 426.176 145.439 443.237 144.998C460.299 144.557 477.184 148.541 492.249 156.563C507.314 164.584 520.045 176.37 529.203 190.772C538.362 205.174 543.635 221.702 544.51 238.747C545.385 255.791 541.832 272.772 534.197 288.037C526.561 303.301 515.104 316.328 500.94 325.85L500.88 326.29C497.658 329.413 493.848 331.864 489.67 333.5L489.54 333.06C484.91 337.06 465.42 343.39 443.03 343.33H442.54C428.36 343.33 412.96 340.83 399.42 333.5C399.42 333.5 399.3 333.24 399.12 332.75C395.69 331.139 392.543 328.985 389.8 326.37C389.747 325.99 389.693 325.617 389.64 325.25C376.455 316.162 365.679 304.003 358.24 289.822C350.801 275.641 346.923 259.864 346.94 243.85V243.85Z" fill="url(#paint2_linear)"/>
</g>
<path d="M445.79 339.75C498.749 339.75 541.68 296.819 541.68 243.86C541.68 190.902 498.749 147.97 445.79 147.97C392.831 147.97 349.9 190.902 349.9 243.86C349.9 296.819 392.831 339.75 445.79 339.75Z" fill="#F5F5F5"/>
<path d="M408.2 280.38C408.2 280.38 385.35 282.25 391.4 323.87C394.53 326.872 398.225 329.224 402.27 330.79L415.12 287.3L408.2 280.38Z" fill="#BE7C5E"/>
<path d="M482.33 280.38C482.33 280.38 505.18 282.25 499.13 323.87C495.999 326.872 492.305 329.224 488.26 330.79L475.41 287.3L482.33 280.38Z" fill="#BE7C5E"/>
<path d="M409.18 212.17C409.18 212.17 407.42 217.29 404.93 223.17C399.49 236.17 405.7 285.88 418.71 291.17C433.31 297.17 452.51 300.93 472.46 293.66C489.79 287.34 495.14 230.66 482.88 216.91C481.44 215.29 479.94 213.68 478.37 212.12L409.18 212.17Z" fill="#333333"/>
<path d="M445.86 251.72C469.338 251.72 488.37 232.688 488.37 209.21C488.37 185.733 469.338 166.7 445.86 166.7C422.382 166.7 403.35 185.733 403.35 209.21C403.35 232.688 422.382 251.72 445.86 251.72Z" fill="#333333"/>
<path opacity="0.1" d="M481.9 280.38H407.76L400.84 310.04C400.84 310.04 396.78 323.77 401.84 329.81C406.9 335.85 454.12 349.58 488.84 330.81C491.868 322.905 492.22 314.224 489.84 306.1C485.84 292.26 488.84 305.1 488.84 305.1L481.9 280.38Z" fill="black"/>
<path opacity="0.1" d="M482.88 280.38H408.74L401.82 310.04C401.82 310.04 397.76 323.77 402.82 329.81C407.88 335.85 455.1 349.58 489.82 330.81C492.848 322.905 493.2 314.224 490.82 306.1C486.82 292.26 489.82 305.1 489.82 305.1L482.88 280.38Z" fill="black"/>
<path d="M482.33 280.38H408.2L401.28 310.04C401.28 310.04 397.22 323.77 402.28 329.81C407.34 335.85 454.56 349.58 489.28 330.81C492.308 322.905 492.66 314.224 490.28 306.1C486.28 292.26 489.28 305.1 489.28 305.1L482.33 280.38Z" fill="#F55F44"/>
<path opacity="0.1" d="M430.93 255.78H460.59V284.48C460.59 287.092 459.552 289.598 457.705 291.445C455.858 293.292 453.352 294.33 450.74 294.33H440.74C438.128 294.33 435.622 293.292 433.775 291.445C431.928 289.598 430.89 287.092 430.89 284.48V255.78H430.93Z" fill="black"/>
<path d="M430.93 254.68H460.59V283.38C460.59 285.993 459.552 288.498 457.705 290.345C455.858 292.192 453.352 293.23 450.74 293.23H440.74C438.128 293.23 435.622 292.192 433.775 290.345C431.928 288.498 430.89 285.993 430.89 283.38V254.68H430.93Z" fill="#BE7C5E"/>
<path opacity="0.1" d="M431 258.95C440.559 262.522 451.082 262.55 460.66 259.03V255.39H431V258.95Z" fill="black"/>
<path d="M445.86 260.94C469.338 260.94 488.37 241.908 488.37 218.43C488.37 194.952 469.338 175.92 445.86 175.92C422.382 175.92 403.35 194.952 403.35 218.43C403.35 241.908 422.382 260.94 445.86 260.94Z" fill="#BE7C5E"/>
<path d="M405.23 202.29H486.29C486.29 202.29 479.37 169.56 448.73 171.65C418.09 173.74 405.23 202.29 405.23 202.29Z" fill="#333333"/>
<path d="M404.24 224.03C406.422 224.03 408.19 220.712 408.19 216.62C408.19 212.528 406.422 209.21 404.24 209.21C402.058 209.21 400.29 212.528 400.29 216.62C400.29 220.712 402.058 224.03 404.24 224.03Z" fill="#BE7C5E"/>
<path d="M487.27 224.03C489.452 224.03 491.22 220.712 491.22 216.62C491.22 212.528 489.452 209.21 487.27 209.21C485.089 209.21 483.32 212.528 483.32 216.62C483.32 220.712 485.089 224.03 487.27 224.03Z" fill="#BE7C5E"/>
<path opacity="0.1" d="M405.23 203.39H486.29C486.29 203.39 479.37 170.66 448.73 172.75C418.09 174.84 405.23 203.39 405.23 203.39Z" fill="black"/>
<g opacity="0.5">
<path opacity="0.5" d="M5 158.11V300.83H229.86C229.86 300.83 246.46 333.5 275 343C275 343 265.89 319.86 275.4 300.83H338V158.11H5Z" fill="url(#paint3_linear)"/>
</g>
<path d="M14 163V298H239C239 298 239 325 266 334C266 334 257 316 266 298H329V163H14Z" fill="white"/>
<path d="M221 190H41V208H221V190Z" fill="#575ADD"/>
<path d="M284 217H41V235H284V217Z" fill="#575ADD"/>
<path d="M257 244H41V262H257V244Z" fill="#575ADD"/>
<g opacity="0.5">
<path opacity="0.5" d="M770 433.11V575.83H545.15C545.15 575.83 528.55 608.5 500 618C500 618 509.11 594.86 499.6 575.83H437V433.11H770Z" fill="url(#paint4_linear)"/>
</g>
<path d="M761 438V573H536C536 573 536 600 509 609C509 609 518 591 509 573H446V438H761Z" fill="white"/>
<path d="M663 465H483V483H663V465Z" fill="#575ADD"/>
<path d="M726 492H483V510H726V492Z" fill="#575ADD"/>
<path d="M699 519H483V537H699V519Z" fill="#575ADD"/>
<g opacity="0.5">
<path opacity="0.5" d="M87 714H84V731H87V714Z" fill="#47E6B1"/>
<path opacity="0.5" d="M94 724V721H77V724H94Z" fill="#47E6B1"/>
</g>
<g opacity="0.5">
<path opacity="0.5" d="M636 192H633V209H636V192Z" fill="#47E6B1"/>
<path opacity="0.5" d="M643 202V199H626V202H643Z" fill="#47E6B1"/>
</g>
<g opacity="0.5">
<path opacity="0.5" d="M700 612H697V629H700V612Z" fill="#47E6B1"/>
<path opacity="0.5" d="M707 622V619H690V622H707Z" fill="#47E6B1"/>
</g>
<g opacity="0.5">
<path opacity="0.5" d="M511 0H508V17H511V0Z" fill="#47E6B1"/>
<path opacity="0.5" d="M518 10V7L501 7V10H518Z" fill="#47E6B1"/>
</g>
<path opacity="0.5" d="M258.7 712.31C257.882 711.942 257.226 711.287 256.858 710.469C256.489 709.651 256.433 708.726 256.7 707.87C256.743 707.737 256.77 707.599 256.78 707.46V707.46C256.806 707.064 256.703 706.671 256.486 706.338C256.27 706.006 255.952 705.752 255.58 705.615C255.208 705.478 254.802 705.465 254.421 705.577C254.041 705.69 253.708 705.922 253.47 706.24V706.24C253.39 706.352 253.323 706.472 253.27 706.6C252.902 707.418 252.248 708.074 251.43 708.442C250.611 708.811 249.687 708.867 248.83 708.6C248.697 708.557 248.559 708.53 248.42 708.52V708.52C248.024 708.494 247.631 708.597 247.298 708.814C246.966 709.03 246.712 709.348 246.575 709.72C246.438 710.092 246.425 710.498 246.537 710.879C246.65 711.259 246.882 711.592 247.2 711.83V711.83C247.312 711.91 247.433 711.977 247.56 712.03C248.379 712.398 249.034 713.052 249.403 713.87C249.771 714.688 249.827 715.613 249.56 716.47C249.517 716.603 249.49 716.741 249.48 716.88V716.88C249.455 717.276 249.558 717.669 249.774 718.001C249.99 718.334 250.308 718.588 250.68 718.725C251.052 718.862 251.458 718.875 251.839 718.763C252.219 718.65 252.553 718.417 252.79 718.1V718.1C252.871 717.988 252.938 717.867 252.99 717.74C253.358 716.921 254.012 716.266 254.831 715.897C255.649 715.529 256.573 715.473 257.43 715.74C257.563 715.783 257.701 715.809 257.84 715.82V715.82C258.236 715.845 258.629 715.742 258.962 715.526C259.294 715.31 259.548 714.992 259.685 714.62C259.822 714.248 259.835 713.841 259.723 713.461C259.61 713.081 259.378 712.747 259.06 712.51V712.51C258.948 712.429 258.827 712.362 258.7 712.31V712.31Z" fill="#4D8AF0"/>
<path opacity="0.5" d="M57.9 394.96C57.0815 394.592 56.4261 393.937 56.0576 393.119C55.6891 392.301 55.633 391.376 55.9 390.52C55.9428 390.387 55.9697 390.249 55.9801 390.11V390.11C56.0056 389.714 55.9026 389.321 55.6864 388.988C55.4701 388.656 55.1523 388.402 54.7802 388.265C54.4081 388.128 54.0017 388.114 53.6214 388.227C53.2412 388.34 52.9075 388.572 52.6701 388.89V388.89C52.5896 389.002 52.5225 389.122 52.47 389.25C52.1024 390.068 51.4477 390.724 50.6295 391.092C49.8114 391.461 48.8867 391.517 48.03 391.25C47.897 391.207 47.7594 391.18 47.62 391.17C47.2243 391.144 46.8309 391.247 46.4984 391.464C46.166 391.68 45.9123 391.998 45.7752 392.37C45.638 392.742 45.6247 393.148 45.7374 393.528C45.85 393.909 46.0824 394.242 46.4 394.48V394.48C46.5118 394.56 46.6327 394.627 46.76 394.68C47.5785 395.047 48.234 395.702 48.6025 396.52C48.971 397.338 49.0271 398.263 48.76 399.12C48.7173 399.253 48.6904 399.39 48.68 399.53V399.53C48.6382 399.933 48.7304 400.338 48.9424 400.683C49.1545 401.028 49.4745 401.294 49.8528 401.439C50.2311 401.583 50.6466 401.599 51.0348 401.484C51.4231 401.368 51.7623 401.128 52 400.8V400.8C52.0805 400.688 52.1476 400.567 52.2001 400.44C52.5677 399.621 53.2224 398.966 54.0405 398.597C54.8587 398.229 55.7834 398.173 56.6401 398.44C56.7731 398.483 56.9107 398.509 57.05 398.52V398.52C57.4458 398.545 57.8392 398.442 58.1716 398.226C58.5041 398.01 58.7578 397.692 58.8949 397.32C59.0321 396.948 59.0453 396.541 58.9327 396.161C58.8201 395.781 58.5877 395.447 58.27 395.21C58.1578 395.111 58.0334 395.027 57.9 394.96V394.96Z" fill="#4D8AF0"/>
<path opacity="0.5" d="M166.9 481.96C166.082 481.592 165.426 480.937 165.058 480.119C164.689 479.301 164.633 478.376 164.9 477.52C164.943 477.387 164.97 477.249 164.98 477.11V477.11C165.006 476.714 164.903 476.321 164.686 475.988C164.47 475.656 164.152 475.402 163.78 475.265C163.408 475.128 163.002 475.114 162.621 475.227C162.241 475.34 161.907 475.572 161.67 475.89V475.89C161.59 476.002 161.522 476.122 161.47 476.25C161.102 477.068 160.448 477.724 159.63 478.092C158.811 478.461 157.887 478.517 157.03 478.25C156.897 478.207 156.759 478.18 156.62 478.17V478.17C156.224 478.144 155.831 478.247 155.498 478.463C155.166 478.68 154.912 478.998 154.775 479.37C154.638 479.742 154.625 480.148 154.737 480.528C154.85 480.909 155.082 481.242 155.4 481.48C155.512 481.56 155.633 481.627 155.76 481.68C156.579 482.047 157.234 482.702 157.603 483.52C157.971 484.338 158.027 485.263 157.76 486.12C157.717 486.253 157.69 486.39 157.68 486.53V486.53C157.638 486.933 157.73 487.338 157.942 487.683C158.154 488.028 158.474 488.294 158.853 488.439C159.231 488.583 159.647 488.599 160.035 488.484C160.423 488.368 160.762 488.128 161 487.8V487.8C161.08 487.688 161.148 487.567 161.2 487.44C161.568 486.621 162.222 485.966 163.041 485.597C163.859 485.229 164.783 485.173 165.64 485.44C165.773 485.483 165.911 485.509 166.05 485.52V485.52C166.446 485.545 166.839 485.442 167.172 485.226C167.504 485.01 167.758 484.692 167.895 484.32C168.032 483.948 168.045 483.541 167.933 483.161C167.82 482.781 167.588 482.447 167.27 482.21V482.21C167.158 482.111 167.033 482.027 166.9 481.96V481.96Z" fill="#4D8AF0"/>
<path opacity="0.5" d="M788.9 717.96C788.082 717.592 787.426 716.937 787.058 716.119C786.689 715.301 786.633 714.376 786.9 713.52C786.943 713.387 786.97 713.249 786.98 713.11V713.11C787.006 712.714 786.903 712.321 786.686 711.988C786.47 711.656 786.152 711.402 785.78 711.265C785.408 711.128 785.002 711.114 784.621 711.227C784.241 711.34 783.907 711.572 783.67 711.89V711.89C783.59 712.002 783.522 712.122 783.47 712.25C783.102 713.068 782.448 713.724 781.63 714.092C780.811 714.461 779.887 714.517 779.03 714.25C778.897 714.207 778.759 714.18 778.62 714.17C778.224 714.144 777.831 714.247 777.498 714.463C777.166 714.68 776.912 714.998 776.775 715.37C776.638 715.742 776.625 716.148 776.737 716.528C776.85 716.909 777.082 717.242 777.4 717.48C777.512 717.56 777.633 717.627 777.76 717.68C778.579 718.047 779.234 718.702 779.603 719.52C779.971 720.338 780.027 721.263 779.76 722.12C779.717 722.253 779.69 722.39 779.68 722.53C779.638 722.933 779.73 723.338 779.942 723.683C780.154 724.028 780.474 724.294 780.853 724.439C781.231 724.583 781.647 724.599 782.035 724.484C782.423 724.368 782.762 724.128 783 723.8C783.081 723.688 783.148 723.567 783.2 723.44C783.568 722.621 784.222 721.966 785.041 721.597C785.859 721.229 786.783 721.173 787.64 721.44C787.773 721.483 787.911 721.509 788.05 721.52C788.446 721.545 788.839 721.442 789.172 721.226C789.504 721.01 789.758 720.692 789.895 720.32C790.032 719.948 790.045 719.541 789.933 719.161C789.82 718.781 789.588 718.447 789.27 718.21V718.21C789.158 718.111 789.033 718.027 788.9 717.96V717.96Z" fill="#4D8AF0"/>
<path opacity="0.5" d="M6 665C9.31371 665 12 662.314 12 659C12 655.686 9.31371 653 6 653C2.68629 653 0 655.686 0 659C0 662.314 2.68629 665 6 665Z" fill="#F55F44"/>
<path opacity="0.5" d="M683 70C686.314 70 689 67.3137 689 64C689 60.6863 686.314 58 683 58C679.686 58 677 60.6863 677 64C677 67.3137 679.686 70 683 70Z" fill="#4D8AF0"/>
<path opacity="0.5" d="M104 82C107.314 82 110 79.3137 110 76C110 72.6863 107.314 70 104 70C100.686 70 98 72.6863 98 76C98 79.3137 100.686 82 104 82Z" fill="#47E6B1"/>
<path opacity="0.5" d="M689 352C692.314 352 695 349.314 695 346C695 342.686 692.314 340 689 340C685.686 340 683 342.686 683 346C683 349.314 685.686 352 689 352Z" fill="#F55F44"/>
<path d="M385.659 501.183V484.922C385.659 482.302 385.123 479.707 384.081 477.287C383.039 474.866 381.512 472.667 379.587 470.814C377.663 468.961 375.377 467.492 372.863 466.489C370.348 465.487 367.652 464.97 364.93 464.97H348.035C348.035 462.776 340.707 460.977 331.394 460.807V441.197C334.316 440.843 336.987 439.43 338.865 437.247C340.743 435.063 341.685 432.273 341.501 429.444C341.316 426.616 340.019 423.961 337.872 422.021C335.726 420.08 332.892 419 329.947 419C327.002 419 324.168 420.08 322.022 422.021C319.875 423.961 318.578 426.616 318.393 429.444C318.209 432.273 319.151 435.063 321.029 437.247C322.907 439.43 325.578 440.843 328.5 441.197V460.807C319.188 460.977 311.859 462.775 311.859 464.97H292.07C289.348 464.97 286.652 465.487 284.137 466.489C281.623 467.492 279.337 468.961 277.413 470.814C275.488 472.667 273.961 474.866 272.919 477.287C271.877 479.707 271.341 482.302 271.341 484.922V501.183C268.944 501.183 267 508.977 267 518.592C267 528.208 268.944 536.002 271.341 536.002V555.049C271.341 557.669 271.877 560.263 272.919 562.684C273.961 565.104 275.488 567.304 277.413 569.156C279.337 571.009 281.623 572.479 284.137 573.481C286.652 574.484 289.348 575 292.07 575H364.93C367.652 575 370.348 574.484 372.863 573.481C375.377 572.479 377.663 571.009 379.587 569.156C381.512 567.304 383.039 565.104 384.081 562.684C385.123 560.263 385.659 557.669 385.659 555.049V536.002C388.056 536.002 390 528.208 390 518.592C390 508.977 388.056 501.183 385.659 501.183Z" fill="#BCBDF1"/>
<path d="M296.22 471.238H360.78C365.651 471.238 370.323 473.101 373.767 476.416C377.212 479.732 379.147 484.228 379.147 488.917V551.054C379.147 555.743 377.212 560.24 373.767 563.555C370.323 566.87 365.651 568.733 360.78 568.733H296.22C291.349 568.733 286.677 566.87 283.232 563.555C279.788 560.24 277.853 555.743 277.853 551.054V488.917C277.853 484.228 279.788 479.732 283.232 476.416C286.677 473.101 291.349 471.238 296.22 471.238Z" fill="#575ADD"/>
<path d="M305.347 517.548C301.894 517.545 298.584 516.223 296.142 513.873C293.701 511.523 292.327 508.337 292.323 505.013C292.323 504.829 292.4 504.651 292.535 504.521C292.671 504.39 292.855 504.317 293.047 504.317C293.239 504.317 293.423 504.39 293.559 504.521C293.694 504.651 293.771 504.829 293.771 505.013C293.771 507.968 294.99 510.802 297.161 512.892C299.332 514.982 302.277 516.156 305.347 516.156C308.417 516.156 311.362 514.982 313.533 512.892C315.704 510.802 316.923 507.968 316.923 505.013C316.923 504.829 317 504.651 317.135 504.521C317.271 504.39 317.455 504.317 317.647 504.317C317.839 504.317 318.023 504.39 318.159 504.521C318.294 504.651 318.371 504.829 318.371 505.013C318.367 508.337 316.993 511.523 314.552 513.873C312.11 516.223 308.8 517.545 305.347 517.548V517.548Z" fill="#BCBDF1"/>
<path d="M328.5 541.225C325.814 541.222 323.24 540.194 321.341 538.366C319.442 536.539 318.374 534.061 318.371 531.476C318.371 531.291 318.447 531.114 318.583 530.983C318.718 530.853 318.902 530.779 319.094 530.779C319.286 530.779 319.47 530.853 319.606 530.983C319.741 531.114 319.818 531.291 319.818 531.476C319.818 533.692 320.732 535.818 322.361 537.385C323.989 538.952 326.197 539.832 328.5 539.832C330.803 539.832 333.011 538.952 334.639 537.385C336.268 535.818 337.182 533.692 337.182 531.476C337.182 531.291 337.259 531.114 337.394 530.983C337.53 530.853 337.714 530.779 337.906 530.779C338.098 530.779 338.282 530.853 338.417 530.983C338.553 531.114 338.629 531.291 338.629 531.476C338.626 534.061 337.558 536.539 335.659 538.366C333.76 540.194 331.186 541.222 328.5 541.225Z" fill="#BCBDF1"/>
<path d="M351.653 517.548C348.2 517.545 344.89 516.223 342.448 513.873C340.007 511.523 338.633 508.337 338.629 505.013C338.629 504.829 338.706 504.651 338.841 504.521C338.977 504.39 339.161 504.317 339.353 504.317C339.545 504.317 339.729 504.39 339.865 504.521C340 504.651 340.076 504.829 340.076 505.013C340.076 507.968 341.296 510.802 343.467 512.892C345.638 514.982 348.583 516.156 351.653 516.156C354.723 516.156 357.668 514.982 359.839 512.892C362.01 510.802 363.229 507.968 363.229 505.013C363.229 504.829 363.306 504.651 363.441 504.521C363.577 504.39 363.761 504.317 363.953 504.317C364.145 504.317 364.329 504.39 364.465 504.521C364.6 504.651 364.676 504.829 364.676 505.013C364.673 508.337 363.299 511.523 360.858 513.873C358.416 516.223 355.106 517.544 351.653 517.548V517.548Z" fill="#BCBDF1"/>
<path d="M305.347 511.977C308.943 511.977 311.859 509.171 311.859 505.709C311.859 502.248 308.943 499.442 305.347 499.442C301.751 499.442 298.835 502.248 298.835 505.709C298.835 509.171 301.751 511.977 305.347 511.977Z" fill="#BCBDF1"/>
<path d="M351.653 511.977C355.249 511.977 358.165 509.171 358.165 505.709C358.165 502.248 355.249 499.442 351.653 499.442C348.057 499.442 345.141 502.248 345.141 505.709C345.141 509.171 348.057 511.977 351.653 511.977Z" fill="#BCBDF1"/>
<path d="M328.5 537.743C331.697 537.743 334.288 536.496 334.288 534.958C334.288 533.42 331.697 532.172 328.5 532.172C325.303 532.172 322.712 533.42 322.712 534.958C322.712 536.496 325.303 537.743 328.5 537.743Z" fill="#BCBDF1"/>
</g>
<defs>
<linearGradient id="paint0_linear" x1="244.766" y1="705.28" x2="527.664" y2="32.7066" gradientUnits="userSpaceOnUse">
<stop stop-color="#808080" stop-opacity="0.25"/>
<stop offset="0.54" stop-color="#808080" stop-opacity="0.12"/>
<stop offset="1" stop-color="#808080" stop-opacity="0.1"/>
</linearGradient>
<linearGradient id="paint1_linear" x1="105645" y1="136941" x2="105645" y2="97621.3" gradientUnits="userSpaceOnUse">
<stop stop-color="#808080" stop-opacity="0.25"/>
<stop offset="0.54" stop-color="#808080" stop-opacity="0.12"/>
<stop offset="1" stop-color="#808080" stop-opacity="0.1"/>
</linearGradient>
<linearGradient id="paint2_linear" x1="118463" y1="85005.8" x2="118463" y2="45669.9" gradientUnits="userSpaceOnUse">
<stop stop-color="#808080" stop-opacity="0.25"/>
<stop offset="0.54" stop-color="#808080" stop-opacity="0.12"/>
<stop offset="1" stop-color="#808080" stop-opacity="0.1"/>
</linearGradient>
<linearGradient id="paint3_linear" x1="125380" y1="79198.6" x2="125380" y2="45014.3" gradientUnits="userSpaceOnUse">
<stop stop-color="#808080" stop-opacity="0.25"/>
<stop offset="0.54" stop-color="#808080" stop-opacity="0.12"/>
<stop offset="1" stop-color="#808080" stop-opacity="0.1"/>
</linearGradient>
<linearGradient id="paint4_linear" x1="-1.10012e+06" y1="130318" x2="-1.10012e+06" y2="96134" gradientUnits="userSpaceOnUse">
<stop stop-color="#808080" stop-opacity="0.25"/>
<stop offset="0.54" stop-color="#808080" stop-opacity="0.12"/>
<stop offset="1" stop-color="#808080" stop-opacity="0.1"/>
</linearGradient>
<clipPath id="clip0">
<rect width="789.99" height="731" fill="white"/>
</clipPath>
</defs>
</svg>
