<svg width="778" height="771" viewBox="0 0 778 771" fill="none" xmlns="http://www.w3.org/2000/svg">
<g clip-path="url(#clip0)">
<path d="M79.1439 728.687H61.0789L44.7339 614.272L32.6899 548.032L75.7029 538.569L76.1329 597.927L79.1439 728.687Z" fill="#9F616A"/>
<path d="M137.212 728.687H117.426L101.081 614.272L89.0371 548.032L132.051 538.569L132.481 597.927L137.212 728.687Z" fill="#9F616A"/>
<path d="M141.944 602.658L90.328 612.121L81.725 596.637L80.005 611.261L30.97 612.982L29.249 493.405L127.319 488.243L141.944 602.658Z" fill="#2F2E41"/>
<path d="M158.302 746.322H118.753C117.146 746.322 115.605 745.684 114.469 744.548C113.333 743.412 112.695 741.87 112.695 740.264V728.706C112.695 728.045 112.825 727.391 113.078 726.78C113.33 726.17 113.701 725.615 114.168 725.148C114.635 724.681 115.19 724.31 115.8 724.058C116.411 723.805 117.065 723.675 117.726 723.675C122.541 728.387 128.089 728.015 134.21 723.675L134.508 721.984C134.652 721.167 135.007 720.402 135.536 719.764C136.066 719.125 136.752 718.636 137.528 718.343C138.304 718.05 139.143 717.965 139.962 718.094C140.781 718.224 141.553 718.565 142.201 719.083L152.894 727.638L155.822 726.879C157.283 726.5 158.81 726.461 160.288 726.764C161.766 727.068 163.155 727.705 164.348 728.629C165.541 729.552 166.507 730.736 167.172 732.091C167.836 733.445 168.182 734.934 168.182 736.442V736.442C168.182 737.74 167.926 739.025 167.43 740.223C166.933 741.422 166.205 742.511 165.288 743.429C164.37 744.346 163.281 745.074 162.083 745.57C160.884 746.067 159.599 746.322 158.302 746.322V746.322Z" fill="#2F2E41"/>
<path d="M100.664 746.322H61.1156C59.5087 746.322 57.9677 745.684 56.8314 744.548C55.6952 743.412 55.0569 741.87 55.0569 740.264V728.706C55.0569 728.045 55.187 727.391 55.4398 726.78C55.6927 726.17 56.0633 725.615 56.5305 725.148C56.9976 724.681 57.5523 724.31 58.1627 724.058C58.7731 723.805 59.4273 723.675 60.088 723.675C64.9032 728.387 70.4516 728.015 76.5723 723.675L76.8705 721.984C77.0147 721.167 77.3689 720.402 77.8984 719.764C78.4279 719.125 79.1144 718.636 79.8904 718.343C80.6665 718.05 81.5054 717.965 82.3246 718.094C83.1438 718.224 83.9152 718.565 84.5628 719.083L95.2567 727.638L98.1847 726.879C99.645 726.5 101.173 726.461 102.651 726.764C104.128 727.068 105.517 727.705 106.71 728.629C107.904 729.552 108.869 730.736 109.534 732.091C110.198 733.445 110.544 734.934 110.544 736.442V736.442C110.544 737.74 110.288 739.025 109.792 740.223C109.295 741.422 108.568 742.511 107.65 743.429C106.733 744.346 105.644 745.074 104.445 745.57C103.246 746.067 101.962 746.322 100.664 746.322V746.322Z" fill="#2F2E41"/>
<path d="M106.673 267.155C124.252 267.155 138.503 252.905 138.503 235.326C138.503 217.746 124.252 203.496 106.673 203.496C89.0937 203.496 74.843 217.746 74.843 235.326C74.843 252.905 89.0937 267.155 106.673 267.155Z" fill="#9F616A"/>
<path d="M87.747 287.802L58.498 280.059L79.144 235.326L106.673 255.112L87.747 287.802Z" fill="#9F616A"/>
<path d="M130.76 498.566C104.898 484.791 86.9891 493.248 63.7636 509.916C45.6752 522.897 20.1457 508.497 0 504.588L15.5988 326.897C16.8397 312.762 22.2256 299.308 31.0813 288.221C39.9371 277.134 51.8686 268.908 65.38 264.574V264.574L93.7687 277.478C106.862 296.121 111.036 335.184 117.856 380.71C123.739 419.983 125.846 455.141 130.76 498.566Z" fill="#6C63FF"/>
<path d="M99.7905 475.339L103.787 496.823C104.16 498.825 104.123 500.883 103.678 502.871C103.233 504.859 102.39 506.736 101.2 508.389C100.009 510.043 98.4962 511.437 96.7517 512.489C95.0072 513.541 93.0676 514.229 91.0499 514.51C88.6471 514.846 86.1989 514.596 83.9132 513.783C81.6275 512.97 79.5719 511.617 77.9208 509.839C76.2698 508.062 75.0722 505.912 74.4297 503.572C73.7872 501.233 73.7188 498.773 74.2303 496.401L79.1443 473.619L55.0569 379.85L58.498 346.299L92.9085 345.439C96.1827 355.311 95.0113 365.668 90.3277 376.409L99.7905 475.339Z" fill="#9F616A"/>
<path d="M88.2741 239.264C90.7973 239.114 93.261 239.967 95.7666 240.299C104.731 241.489 114.057 234.984 116.036 226.16C116.195 224.985 116.545 223.844 117.073 222.782C118.453 220.53 121.595 220.1 124.185 220.618C126.776 221.136 129.231 222.349 131.869 222.487C135.942 222.701 139.852 220.193 142.023 216.74C144.074 213.178 144.946 209.058 144.515 204.97L142.562 207.02C141.769 205.341 141.463 203.474 141.678 201.63C140.644 201.354 139.555 201.349 138.518 201.614C137.481 201.88 136.529 202.407 135.754 203.146C134.032 203.329 135.331 199.952 134.052 198.785C133.43 198.403 132.689 198.264 131.971 198.396C128.308 198.431 125.345 195.629 122.459 193.374C117.458 189.475 111.61 186.808 105.387 185.587C101.251 184.781 96.8533 184.651 92.9309 186.191C89.7646 187.612 86.907 189.639 84.519 192.158C78.3782 198.063 72.9405 205.001 70.3857 213.128C68.3089 219.785 68.25 226.907 70.2167 233.597C71.2461 237.072 74.3485 248.971 78.8902 249.248C84.5971 249.596 81.1707 239.688 88.2741 239.264Z" fill="#2F2E41"/>
<path d="M102.372 361.784C85.342 349.151 67.5962 346.676 49.0352 355.762L56.4059 306.624C57.227 301.15 59.9856 296.152 64.1799 292.54C68.3742 288.928 73.7256 286.941 79.2609 286.941V286.941C85.3902 286.941 91.2685 289.376 95.6025 293.71C99.9366 298.044 102.371 303.923 102.371 310.052L102.372 361.784Z" fill="#6C63FF"/>
<path d="M366.634 628.582L293.034 546.012C292.222 545.099 291.805 543.901 291.875 542.681C291.945 541.462 292.496 540.319 293.407 539.505L379.401 462.853C380.314 462.042 381.511 461.625 382.731 461.695C383.951 461.765 385.094 462.316 385.908 463.227L459.508 545.797C460.32 546.71 460.737 547.908 460.666 549.128C460.596 550.348 460.045 551.49 459.134 552.304L373.141 628.956C372.228 629.768 371.03 630.185 369.81 630.115C368.59 630.044 367.448 629.493 366.634 628.582V628.582ZM384.532 464.454C384.043 463.907 383.358 463.576 382.626 463.534C381.894 463.492 381.175 463.742 380.627 464.23L294.634 540.881C294.087 541.37 293.757 542.055 293.715 542.787C293.673 543.519 293.923 544.238 294.41 544.786L368.01 627.356C368.498 627.902 369.184 628.233 369.916 628.275C370.648 628.317 371.366 628.067 371.914 627.58L457.908 550.928C458.454 550.44 458.785 549.754 458.827 549.022C458.869 548.29 458.619 547.572 458.132 547.024L384.532 464.454Z" fill="#E6E6E6"/>
<path d="M334.356 411.83C334.083 411.521 333.752 411.269 333.382 411.088C333.011 410.907 332.608 410.801 332.197 410.776C331.785 410.752 331.373 410.809 330.983 410.944C330.594 411.079 330.235 411.29 329.927 411.564C329.619 411.838 329.369 412.171 329.19 412.542C329.011 412.914 328.907 413.317 328.885 413.729C328.862 414.141 328.921 414.553 329.058 414.942C329.196 415.33 329.408 415.688 329.684 415.995L371.919 463.376C372.193 463.684 372.524 463.934 372.894 464.113C373.264 464.292 373.666 464.396 374.076 464.42C374.486 464.444 374.897 464.386 375.286 464.251C375.674 464.116 376.032 463.906 376.339 463.632C376.645 463.358 376.895 463.027 377.074 462.657C377.253 462.287 377.357 461.885 377.38 461.474C377.404 461.064 377.346 460.653 377.211 460.265C377.075 459.877 376.864 459.519 376.591 459.212L334.356 411.83Z" fill="#E6E6E6"/>
<path d="M298.066 486.693C295.474 483.785 293.803 480.174 293.263 476.316C292.724 472.458 293.34 468.527 295.035 465.02C296.729 461.512 299.426 458.586 302.783 456.611C306.141 454.636 310.009 453.701 313.898 453.925C317.787 454.148 321.522 455.52 324.632 457.866C327.741 460.212 330.085 463.428 331.367 467.106C332.649 470.785 332.811 474.761 331.833 478.531C330.856 482.302 328.782 485.698 325.874 488.29C321.972 491.76 316.853 493.541 311.64 493.241C306.427 492.942 301.545 490.587 298.066 486.693V486.693ZM326.095 461.709C323.745 459.073 320.667 457.194 317.249 456.307C313.832 455.421 310.228 455.568 306.894 456.73C303.56 457.892 300.645 460.017 298.518 462.835C296.392 465.653 295.149 469.039 294.946 472.564C294.744 476.089 295.591 479.595 297.381 482.638C299.171 485.682 301.823 488.126 305.002 489.662C308.182 491.198 311.745 491.756 315.242 491.267C318.738 490.778 322.011 489.263 324.647 486.914C328.177 483.761 330.311 479.336 330.582 474.611C330.854 469.886 329.24 465.246 326.095 461.709V461.709Z" fill="#E6E6E6"/>
<path d="M368.684 595.181C368.957 595.49 369.288 595.743 369.659 595.924C370.029 596.105 370.432 596.21 370.844 596.235C371.255 596.26 371.668 596.203 372.057 596.068C372.447 595.933 372.806 595.722 373.113 595.448C373.421 595.173 373.672 594.841 373.851 594.469C374.03 594.098 374.133 593.695 374.156 593.283C374.178 592.871 374.119 592.459 373.982 592.07C373.845 591.681 373.632 591.323 373.356 591.017L331.121 543.635C330.848 543.326 330.517 543.074 330.147 542.893C329.776 542.712 329.374 542.606 328.962 542.581C328.55 542.556 328.138 542.613 327.748 542.748C327.359 542.884 327 543.094 326.692 543.369C326.384 543.643 326.134 543.976 325.955 544.347C325.776 544.719 325.672 545.122 325.65 545.534C325.627 545.945 325.686 546.357 325.824 546.746C325.961 547.135 326.174 547.493 326.45 547.799L368.684 595.181Z" fill="#E6E6E6"/>
<path d="M382.446 582.914C382.719 583.222 383.051 583.472 383.421 583.651C383.791 583.83 384.192 583.934 384.603 583.958C385.013 583.982 385.424 583.924 385.812 583.789C386.201 583.654 386.558 583.443 386.865 583.17C387.172 582.896 387.422 582.565 387.601 582.195C387.78 581.825 387.884 581.423 387.907 581.012C387.931 580.602 387.873 580.191 387.737 579.803C387.602 579.415 387.391 579.057 387.118 578.751L344.883 531.369C344.61 531.059 344.279 530.807 343.908 530.626C343.538 530.445 343.135 530.339 342.724 530.314C342.312 530.29 341.9 530.347 341.51 530.482C341.12 530.617 340.762 530.828 340.454 531.102C340.146 531.376 339.895 531.709 339.716 532.08C339.538 532.452 339.434 532.855 339.411 533.267C339.389 533.679 339.448 534.091 339.585 534.48C339.722 534.868 339.935 535.226 340.211 535.532L382.446 582.914Z" fill="#E6E6E6"/>
<path d="M404.974 520.319C407.566 523.227 409.238 526.838 409.777 530.696C410.317 534.554 409.701 538.485 408.006 541.992C406.311 545.5 403.615 548.426 400.257 550.401C396.899 552.376 393.032 553.31 389.143 553.087C385.254 552.864 381.518 551.492 378.409 549.146C375.299 546.8 372.956 543.584 371.674 539.905C370.392 536.227 370.229 532.251 371.207 528.48C372.185 524.71 374.259 521.314 377.167 518.722C381.069 515.252 386.188 513.471 391.401 513.77C396.614 514.07 401.495 516.425 404.974 520.319V520.319ZM376.946 545.303C379.295 547.938 382.373 549.818 385.791 550.704C389.209 551.591 392.813 551.444 396.147 550.282C399.481 549.12 402.395 546.995 404.522 544.177C406.649 541.358 407.892 537.973 408.094 534.448C408.297 530.923 407.45 527.417 405.66 524.374C403.87 521.33 401.217 518.886 398.038 517.35C394.859 515.814 391.296 515.255 387.799 515.744C384.302 516.234 381.029 517.749 378.393 520.098C374.864 523.251 372.73 527.676 372.458 532.401C372.187 537.126 373.801 541.766 376.946 545.303V545.303Z" fill="#E6E6E6"/>
<path d="M714.752 299.181L711.356 297.238L764.571 204.194C768.616 197.122 771.228 189.323 772.258 181.242C773.289 173.16 772.718 164.955 770.577 157.095C768.437 149.234 764.769 141.872 759.783 135.429C754.797 128.986 748.591 123.588 741.519 119.543L544.394 6.79968C537.322 2.75499 529.523 0.142801 521.441 -0.887722C513.36 -1.91825 505.155 -1.34692 497.294 0.793617C489.434 2.93415 482.072 6.60198 475.629 11.5877C469.186 16.5734 463.788 22.7794 459.743 29.8512L167.8 540.296C163.755 547.368 161.143 555.167 160.112 563.249C159.082 571.33 159.653 579.535 161.794 587.396C163.934 595.256 167.602 602.618 172.588 609.061C177.574 615.504 183.78 620.902 190.851 624.947L387.977 737.691C395.049 741.735 402.848 744.348 410.929 745.378C419.011 746.409 427.216 745.837 435.077 743.697C442.937 741.556 450.299 737.888 456.742 732.903C463.185 727.917 468.583 721.711 472.628 714.639L673.476 363.468L676.873 365.411L714.752 299.181Z" fill="#3F3D56"/>
<path opacity="0.2" d="M735.679 134.796L709.948 120.08C709.472 123.657 708.123 127.063 706.021 129.997C703.919 132.931 701.127 135.303 697.892 136.904C694.657 138.505 691.078 139.286 687.47 139.178C683.862 139.07 680.337 138.076 677.203 136.284L564.272 71.6948C561.139 69.9026 558.495 67.3674 556.573 64.3125C554.65 61.2576 553.509 57.7769 553.248 54.1769C552.988 50.5768 553.617 46.968 555.08 43.6684C556.543 40.3687 558.795 37.4794 561.637 35.2551L537.604 21.5096C532.323 18.4891 526.499 16.5383 520.464 15.7688C514.429 14.9992 508.301 15.4258 502.431 17.0244C496.561 18.6229 491.063 21.362 486.251 25.0852C481.44 28.8085 477.408 33.443 474.388 38.7242L182.873 548.42C179.853 553.701 177.902 559.526 177.132 565.561C176.363 571.596 176.789 577.723 178.388 583.594C179.986 589.464 182.726 594.962 186.449 599.773C190.172 604.585 194.807 608.616 200.088 611.637L398.163 724.923C403.444 727.944 409.268 729.895 415.303 730.664C421.338 731.434 427.466 731.007 433.336 729.409C439.206 727.81 444.704 725.071 449.516 721.348C454.327 717.624 458.359 712.99 461.379 707.709L752.894 198.013C755.914 192.731 757.865 186.907 758.635 180.872C759.404 174.837 758.978 168.709 757.379 162.839C755.78 156.969 753.041 151.471 749.318 146.66C745.595 141.848 740.96 137.817 735.679 134.796V134.796Z" fill="black"/>
<path d="M479.423 234.471L441.262 212.646L436.008 221.833L474.169 243.658L479.423 234.471Z" fill="#6C63FF"/>
<path d="M611.573 310.053L598.146 302.373L592.891 311.56L606.318 319.24L611.573 310.053Z" fill="#6C63FF"/>
<path d="M638.427 325.412L625 317.732L619.745 326.919L633.172 334.599L638.427 325.412Z" fill="#6C63FF"/>
<path d="M584.012 294.29L492.85 242.151L487.596 251.338L578.758 303.477L584.012 294.29Z" fill="#6C63FF"/>
<path d="M529.567 341.93L516.14 334.251L510.886 343.438L524.313 351.117L529.567 341.93Z" fill="#6C63FF"/>
<path d="M556.421 357.289L542.994 349.609L537.74 358.796L551.167 366.476L556.421 357.289Z" fill="#6C63FF"/>
<path d="M502.007 326.167L410.844 274.028L405.59 283.215L496.752 335.354L502.007 326.167Z" fill="#6C63FF"/>
<path d="M577.238 317.613L539.077 295.787L533.822 304.974L571.983 326.8L577.238 317.613Z" fill="#6C63FF"/>
<path d="M628.826 347.118L590.665 325.292L585.41 334.479L623.571 356.305L628.826 347.118Z" fill="#6C63FF"/>
<path d="M421.767 228.693L408.34 221.014L403.086 230.201L416.513 237.88L421.767 228.693Z" fill="#6C63FF"/>
<path d="M526.357 288.512L435.194 236.373L429.94 245.56L521.102 297.699L526.357 288.512Z" fill="#6C63FF"/>
<path d="M443.357 279.493L481.518 301.319L486.772 292.132L448.611 270.306L443.357 279.493Z" fill="#6C63FF"/>
<path d="M391.769 249.988L429.93 271.814L435.184 262.627L397.023 240.801L391.769 249.988Z" fill="#6C63FF"/>
<path d="M598.827 368.413L612.254 376.092L617.508 366.905L604.081 359.226L598.827 368.413Z" fill="#6C63FF"/>
<path d="M494.238 308.594L585.4 360.733L590.654 351.546L499.492 299.407L494.238 308.594Z" fill="#6C63FF"/>
<path d="M751 753.871H33V755.871H751V753.871Z" fill="#3F3D56"/>
<path d="M677.499 754.544L677.578 753.4C677.595 753.149 679.5 728.085 695.895 711.716C712.292 695.348 737.359 693.485 737.609 693.468L738.753 693.392L738.675 694.535C738.657 694.786 736.752 719.85 720.357 736.218C703.961 752.587 678.894 754.449 678.643 754.466L677.499 754.544ZM697.308 713.132C683.446 726.971 680.282 747.273 679.693 752.353C684.775 751.769 705.095 748.629 718.944 734.803C732.791 720.978 735.966 700.665 736.559 695.582C731.474 696.166 711.157 699.307 697.308 713.132Z" fill="#3F3D56"/>
<path d="M705.153 717.723C699.412 740.058 678.961 754.104 678.961 754.104C678.961 754.104 667.817 731.937 673.558 709.602C679.299 687.267 699.75 673.221 699.75 673.221C699.75 673.221 710.894 695.388 705.153 717.723Z" fill="#6C63FF"/>
<path d="M353.382 563.389C401.641 590.244 462.534 572.892 489.389 524.633C516.244 476.373 498.892 415.481 450.633 388.626C402.373 361.77 341.481 379.122 314.626 427.382C287.77 475.641 305.122 536.534 353.382 563.389Z" fill="#3F3D56"/>
<path opacity="0.1" d="M360.189 551.155C401.692 574.251 454.06 559.329 477.155 517.825C500.251 476.322 485.328 423.955 443.825 400.859C402.322 377.764 349.954 392.686 326.859 434.189C303.763 475.692 318.686 528.06 360.189 551.155Z" fill="black"/>
<path d="M373.73 518.348L379.816 507.41C374.347 504.226 369.713 499.093 367.883 494.529L374.208 488.547C376.519 493.724 380.42 498.031 385.344 500.842C392.113 504.608 399.159 502.714 402.594 496.542C405.908 490.586 404.239 484.835 398.993 477.66C391.68 467.918 388.447 459.594 393.689 450.173C398.691 441.184 408.112 437.492 417.786 440.748L423.873 429.81L429.783 433.099L423.937 443.604C428.311 446.116 431.878 449.823 434.221 454.29L427.86 460.111C425.671 455.723 422.196 452.107 417.898 449.745C410.558 445.661 405.021 449.104 402.611 453.436C399.477 459.067 401.438 463.845 407.561 472.359C414.849 482.371 416.673 490.761 411.309 500.399C406.549 508.954 396.846 514.05 386.003 510.426L379.735 521.69L373.73 518.348Z" fill="#6C63FF"/>
<path d="M144.366 186.734C154.524 193.4 166.321 193.377 170.715 186.682C175.109 179.987 170.436 169.155 160.277 162.489C150.119 155.822 138.322 155.846 133.929 162.541C129.535 169.236 134.208 180.068 144.366 186.734Z" fill="#6C63FF"/>
<path d="M233.945 45.7719C205.784 27.4851 172.585 27.9655 159.619 46.855C159.499 47.0294 158.681 48.2715 157.614 49.8978C156.05 52.2821 155.938 55.4797 157.302 58.7872C158.667 62.0947 161.396 65.2412 164.891 67.5348L164.891 67.5348C166.623 68.6713 168.491 69.5638 170.389 70.1612C172.286 70.7586 174.175 71.0492 175.948 71.0165C177.721 70.9837 179.343 70.6282 180.722 69.9702C182.1 69.3123 183.208 68.3648 183.982 67.1819C184.707 66.0749 185.208 65.3088 185.239 65.2618C187.181 62.3014 190.218 60.1329 194.053 58.9697C197.887 57.8064 202.387 57.6885 207.109 58.6275C211.831 59.5664 216.613 61.5299 220.984 64.3249C225.356 67.1198 229.166 70.6498 232.04 74.5678C234.914 78.4857 236.753 82.6566 237.376 86.6701C238 90.6836 237.386 94.4015 235.595 97.458C233.804 100.515 230.897 102.805 227.162 104.103C223.426 105.401 218.989 105.662 214.289 104.861L214.291 104.868C214.291 104.868 190.132 100.798 176.998 108.346L177.003 108.35C174.478 110.005 172.393 112.073 170.81 114.489C170.159 115.481 164.546 124.221 160.086 131.378C158.548 133.848 158.483 137.123 159.905 140.496C161.327 143.869 164.122 147.071 167.687 149.41L167.687 149.41C169.479 150.585 171.411 151.508 173.373 152.123C175.335 152.739 177.287 153.037 179.119 152.998C180.951 152.96 182.625 152.587 184.045 151.901C185.465 151.214 186.603 150.228 187.394 148.999C191.573 142.506 196.474 134.97 196.832 134.424C201.386 127.485 215.733 127.01 226.75 127.791C239.437 128.689 250.758 125.997 258.677 119.776C260.349 118.523 261.781 117.055 262.946 115.399C266.008 110.733 267.686 105.226 267.885 99.1934C268.083 93.1611 266.797 86.7234 264.101 80.2514C261.406 73.7793 257.353 67.4007 252.178 61.4831C247.002 55.5655 240.805 50.2259 233.945 45.7719V45.7719Z" fill="#6C63FF"/>
<path d="M171.705 65.7438C168.203 63.4453 165.473 60.2838 164.115 56.9547C162.757 53.6255 162.883 50.4014 164.464 47.9914C165.542 46.3477 166.369 45.0922 166.49 44.9159C170.295 39.3594 175.985 35.1813 183.086 32.7283C172.881 34.5305 164.726 39.3976 159.749 46.6563C159.628 46.8326 158.802 48.0881 157.723 49.7318C156.142 52.1418 156.017 55.3659 157.375 58.695C158.733 62.0241 161.463 65.1856 164.965 67.4841V67.4841C167.843 69.3719 171.066 70.5615 174.145 70.8722C177.224 71.1828 179.99 70.5976 182.023 69.2054C178.626 69.1107 174.951 67.8777 171.705 65.7438V65.7438Z" fill="#3F3D56"/>
<path d="M222.191 64.5876C226.122 67.3579 229.504 70.7328 232.046 74.4227C234.588 78.1125 236.214 82.007 236.785 85.7718C237.356 89.5366 236.854 93.0592 235.324 96.0371C233.793 99.015 231.279 101.359 227.997 102.869C231.552 102.501 234.707 101.407 237.245 99.6592C239.784 97.9119 241.646 95.553 242.706 92.7433C243.766 89.9337 243.998 86.7394 243.387 83.3781C242.776 80.0169 241.335 76.5678 239.164 73.2659C236.992 69.9641 234.141 66.8872 230.804 64.2449C227.467 61.6027 223.724 59.4572 219.828 57.9548C215.932 56.4525 211.976 55.6285 208.23 55.5391C204.484 55.4497 201.035 56.097 198.119 57.4368C201.897 57.0433 206.033 57.4834 210.207 58.7232C214.38 59.963 218.48 61.9694 222.191 64.5876V64.5876Z" fill="#3F3D56"/>
<path d="M142.363 181.06C140.236 178.599 138.662 175.948 137.768 173.317C136.873 170.686 136.681 168.147 137.208 165.9C137.734 163.652 138.965 161.759 140.802 160.368C142.639 158.977 145.033 158.127 147.794 157.885C145.025 157.506 142.423 157.64 140.161 158.277C137.898 158.914 136.027 160.04 134.672 161.58C133.317 163.119 132.508 165.038 132.299 167.208C132.091 169.378 132.487 171.75 133.462 174.167C134.437 176.583 135.969 178.989 137.955 181.224C139.942 183.459 142.337 185.472 144.984 187.13C147.63 188.788 150.465 190.053 153.303 190.841C156.14 191.629 158.914 191.922 161.441 191.7C158.032 191.235 154.477 190.008 151.13 188.142C147.783 186.275 144.76 183.833 142.363 181.06V181.06Z" fill="#3F3D56"/>
</g>
<defs>
<clipPath id="clip0">
<rect width="777.592" height="770.492" fill="white"/>
</clipPath>
</defs>
</svg>
