<?xml version="1.0" standalone="no"?>
<!DOCTYPE svg PUBLIC "-//W3C//DTD SVG 20010904//EN"
 "http://www.w3.org/TR/2001/REC-SVG-20010904/DTD/svg10.dtd">
<svg version="1.0" xmlns="http://www.w3.org/2000/svg"
 width="64.000000pt" height="64.000000pt" viewBox="0 0 64.000000 64.000000"
 preserveAspectRatio="xMidYMid meet">

<g transform="translate(0.000000,64.000000) scale(0.100000,-0.100000)"
fill="#000000" stroke="none">
<path d="M367 322 c-49 -122 -55 -144 -35 -124 20 20 106 242 93 242 -6 0 -33
-53 -58 -118z"/>
<path d="M230 395 c0 -14 -7 -28 -15 -31 -14 -6 -14 -8 -1 -18 10 -7 16 -32
18 -71 3 -60 3 -60 36 -63 36 -4 45 15 10 20 -21 3 -23 9 -23 58 0 49 2 55 23
58 30 5 28 22 -3 22 -20 0 -25 5 -25 25 0 14 -4 25 -10 25 -5 0 -10 -11 -10
-25z"/>
<path d="M113 349 c-29 -17 -53 -32 -53 -35 0 -2 27 -17 60 -34 68 -34 82 -24
19 14 l-42 24 42 21 c22 12 41 26 41 31 0 15 -11 12 -67 -21z"/>
<path d="M460 370 c0 -5 18 -19 40 -30 22 -11 40 -22 40 -25 0 -3 -18 -14 -40
-25 -22 -11 -40 -25 -40 -31 0 -12 -2 -13 68 24 28 15 52 29 52 32 0 6 -102
65 -112 65 -5 0 -8 -4 -8 -10z"/>
</g>
</svg>
